<svg width="16" height="16" viewBox="0 0 30 33" fill="none" xmlns="http://www.w3.org/2000/svg">
<path d="M18.25 13.375L17.7625 24.75M12.2375 24.75L11.75 13.375M5.25 6.875L6.67275 28.2162C6.78656 29.9234 8.20454 31.25 9.91555 31.25H20.0845C21.7955 31.25 23.2134 29.9234 23.3273 28.2162L24.75 6.875M5.25 6.875H10.125M5.25 6.875H2M24.75 6.875H28M24.75 6.875H19.875M19.875 6.875V5.25C19.875 3.45507 18.4199 2 16.625 2H13.375C11.5801 2 10.125 3.45507 10.125 5.25V6.875M19.875 6.875H10.125" stroke="black" stroke-width="2.925" stroke-linecap="round" stroke-linejoin="round"/>
</svg>
